<svg width="122" height="122" viewBox="0 0 122 122" fill="none" xmlns="http://www.w3.org/2000/svg">
<rect width="122" height="122" rx="23" fill="#FFFCF8"/>
<path d="M109.782 57.2079C110.594 58.0905 111 59.1386 111 60.3522C111 61.5658 110.594 62.6139 109.782 63.4965L94.0594 79.0523C93.2475 79.9349 92.2141 80.3762 90.9592 80.3762C89.7044 80.3762 88.6709 79.9349 87.859 79.0523L81.5478 72.8741C80.662 71.9915 80.2191 70.9434 80.2191 69.7298C80.2191 68.5163 80.662 67.4682 81.5478 66.5856C82.4336 65.7765 83.4854 65.372 84.7034 65.372C85.9213 65.372 86.9732 65.7765 87.859 66.5856L90.9592 69.6747L103.471 57.2079C104.357 56.3989 105.409 55.9943 106.626 55.9943C107.844 55.9943 108.896 56.3989 109.782 57.2079ZM57.2995 100.897L46.2273 90.8571C40.9126 86.0764 36.3545 81.8105 32.553 78.0594C28.7516 74.3083 25.6144 70.7779 23.1416 67.4682C20.6688 64.1584 18.8603 60.959 17.7162 57.8699C16.5721 54.7808 16 51.5446 16 48.1612C16 41.2475 18.3252 35.4922 22.9755 30.8953C27.6259 26.2984 33.4204 24 40.359 24C44.1974 24 47.8512 24.7907 51.3205 26.372C54.7898 27.9533 57.7793 30.215 60.289 33.157C62.7988 30.215 65.7883 27.9533 69.2576 26.372C72.7269 24.7907 76.3807 24 80.2191 24C86.4934 24 91.7527 25.8939 95.9971 29.6818C100.241 33.4696 102.88 37.901 103.914 42.976C102.437 42.3876 100.887 42.0198 99.2634 41.8727C97.6395 41.7256 95.9786 41.6521 94.2809 41.6521C88.0066 41.6521 82.249 44.1711 77.0082 49.2093C71.7673 54.2475 69.1469 60.5545 69.1469 68.1301C69.1469 71.6605 69.9219 75.2461 71.472 78.8868C73.0221 82.5276 75.1997 85.488 78.0047 87.768C76.6022 89.0184 74.7753 90.6181 72.5239 92.5672C70.2725 94.5163 68.3349 96.2263 66.711 97.6973L63.1678 100.897C62.3559 101.632 61.3778 102 60.2337 102C59.0895 102 58.1115 101.632 57.2995 100.897Z" fill="url(#paint0_linear_58_15)"/>
<defs>
<linearGradient id="paint0_linear_58_15" x1="43.6807" y1="17.3805" x2="82.218" y2="89.2076" gradientUnits="userSpaceOnUse">
<stop stop-color="#6D4F22"/>
<stop offset="0.567308" stop-color="#E7B74C"/>
<stop offset="1" stop-color="#98610D"/>
</linearGradient>
</defs>
</svg>
